<?xml version="1.0" standalone="no"?>
<!DOCTYPE svg PUBLIC "-//W3C//DTD SVG 20010904//EN"
 "http://www.w3.org/TR/2001/REC-SVG-20010904/DTD/svg10.dtd">
<svg version="1.0" xmlns="http://www.w3.org/2000/svg"
 width="420.000000pt" height="420.000000pt" viewBox="0 0 420.000000 420.000000"
 preserveAspectRatio="xMidYMid meet">

<g transform="translate(0.000000,420.000000) scale(0.100000,-0.100000)"
fill="#000000" stroke="none">
<path d="M2330 4148 c-14 -4 -47 -10 -73 -13 -39 -5 -57 -15 -93 -49 l-44 -43
0 -94 0 -94 -34 -27 c-19 -15 -46 -52 -60 -82 -25 -53 -26 -59 -19 -189 5
-115 3 -141 -12 -178 -9 -24 -17 -70 -18 -101 0 -63 7 -77 84 -170 26 -31 52
-72 58 -90 12 -37 41 -302 41 -373 0 -26 -4 -54 -10 -64 -5 -10 -14 -92 -20
-182 -6 -90 -14 -193 -20 -229 -13 -94 -14 -230 -1 -263 14 -37 14 -48 -1 -45
-24 5 -22 -88 3 -139 l22 -46 -38 -71 c-100 -183 -272 -447 -499 -766 -174
-242 -361 -532 -371 -573 -10 -39 9 -62 77 -96 65 -33 130 -40 159 -18 22 18
230 404 296 552 34 77 451 916 459 924 3 3 9 0 15 -6 17 -17 31 -141 34 -303
2 -149 24 -360 45 -445 18 -68 25 -309 10 -347 -41 -109 -53 -126 -116 -163
-34 -20 -71 -46 -82 -58 -39 -42 -52 -50 -52 -32 0 13 -8 15 -50 9 -44 -6 -50
-5 -44 10 4 10 1 16 -7 17 -8 0 13 8 46 18 33 9 69 22 80 29 18 11 17 12 -10
7 -16 -3 -58 -9 -91 -15 -34 -5 -77 -16 -95 -24 -45 -19 -103 -80 -96 -100 4
-9 2 -16 -3 -16 -16 0 -12 -28 7 -50 10 -11 28 -20 42 -20 13 0 34 -11 46 -24
34 -37 97 -43 170 -16 33 12 77 26 97 31 21 5 77 30 125 55 76 39 99 46 166
51 l79 6 -36 -71 c-26 -52 -41 -71 -58 -74 -20 -3 -23 -8 -20 -37 4 -53 18
-64 72 -56 25 4 59 6 75 5 39 -2 57 -1 130 6 33 2 77 5 97 4 20 0 39 4 43 10
3 5 16 10 29 10 29 0 56 29 56 62 0 14 -12 47 -26 73 -14 27 -43 117 -65 201
-44 171 -47 220 -28 439 10 110 9 147 -5 235 -25 169 -28 217 -18 371 8 132
11 150 38 199 16 29 39 57 51 63 31 14 43 63 43 179 0 73 8 129 31 230 39 163
44 214 29 264 -8 26 -15 178 -20 454 -5 228 -11 591 -15 805 -6 298 -11 396
-21 417 -30 59 -108 101 -211 114 -72 9 -83 -2 -83 -81 0 -69 5 -79 30 -65 14
7 19 5 23 -10 3 -11 13 -23 23 -27 20 -7 74 -62 74 -74 0 -14 -12 -11 -33 9
-43 39 -285 22 -331 -24 -8 -8 -22 -14 -30 -14 -9 0 -16 -4 -16 -10 0 -18 -93
-11 -128 10 -18 11 -47 20 -64 20 -30 0 -31 1 -16 17 13 12 38 17 97 19 89 3
111 14 111 58 0 14 5 26 10 26 6 0 10 27 10 60 0 33 -4 60 -9 60 -5 0 -11 8
-13 18 -2 14 -8 16 -28 10z m355 -392 c19 -8 35 -18 35 -21 0 -3 -10 0 -22 6
-12 6 -44 15 -72 19 -47 7 -48 8 -13 9 21 0 53 -6 72 -13z m-33 -36 c41 -12
98 -70 98 -100 0 -16 -26 -40 -44 -40 -3 0 -6 12 -6 28 0 37 -27 75 -50 69
-12 -3 -20 2 -23 14 -12 45 -98 -4 -116 -64 -9 -31 -9 -31 -10 -5 -2 42 60
105 104 107 6 1 27 -4 47 -9z m-474 -64 c28 -14 63 -56 75 -90 8 -21 -17 -56
-41 -56 -11 0 -13 8 -9 34 6 35 -16 81 -33 71 -5 -3 -14 4 -20 16 -9 16 -19
20 -41 17 -35 -5 -37 -1 -6 12 31 13 44 12 75 -4z m188 -28 c4 -13 6 -88 5
-167 l-2 -144 39 7 c31 4 45 2 63 -13 l23 -18 -35 -6 c-19 -3 -61 -3 -94 1
l-60 7 0 40 c1 22 4 69 8 105 4 36 10 94 13 130 4 36 8 68 11 73 8 14 22 7 29
-15z m490 -113 c32 -48 -3 -91 -106 -128 -52 -19 -150 -29 -150 -16 0 5 -10 9
-22 9 -59 0 -93 19 -111 61 -10 23 -16 44 -13 47 3 3 28 -16 55 -41 46 -43 51
-45 92 -40 50 6 139 61 172 105 26 35 61 37 83 3z m-757 -155 c39 -7 58 -7 68
2 24 19 37 -6 14 -26 -29 -27 -100 -32 -145 -11 -71 34 -36 53 63 35z m495
-172 c21 -19 15 -33 -24 -53 -30 -16 -150 -33 -150 -22 0 4 18 18 39 32 25 15
44 37 52 59 12 34 13 34 38 18 14 -9 34 -24 45 -34z m-563 5 c13 -16 12 -17
-3 -4 -10 7 -18 15 -18 17 0 8 8 3 21 -13z m73 -80 c10 -26 0 -25 -18 1 -13
20 -13 24 -2 20 8 -3 17 -13 20 -21z m406 -72 c-25 -14 -87 -25 -75 -13 9 9
29 14 80 20 6 1 3 -2 -5 -7z m-315 -331 c8 -85 19 -195 25 -245 5 -49 9 -112
8 -140 0 -34 -5 -14 -13 60 -7 61 -19 162 -28 225 -22 160 -47 373 -46 391 4
45 42 -160 54 -291z m699 -27 c4 -9 1 -20 -6 -25 -18 -11 -24 -10 -37 6 -10
11 -8 17 6 25 25 14 30 14 37 -6z m56 -410 c0 -10 -7 -27 -15 -37 -8 -11 -15
-28 -15 -38 0 -10 -4 -18 -9 -18 -9 0 -7 55 4 90 8 25 35 27 35 3z m-63 -235
c-3 -7 -5 -2 -5 12 0 14 2 19 5 13 2 -7 2 -19 0 -25z m-669 -118 c1 -30 -4
-65 -12 -78 -11 -21 -14 -22 -25 -8 -16 19 -10 127 9 171 l13 30 7 -30 c4 -16
8 -55 8 -85z m648 14 c-4 -16 -19 -30 -41 -40 -51 -21 -51 -19 -3 35 44 49 55
51 44 5z m-291 -344 c8 -14 23 -160 28 -281 3 -58 9 -114 15 -125 12 -23 39
-295 48 -489 6 -125 4 -149 -15 -221 -12 -44 -31 -94 -42 -110 -18 -28 -19
-28 -19 -5 0 13 -10 31 -23 41 -39 31 -99 172 -103 243 -31 517 -37 730 -23
856 6 47 12 88 15 93 7 11 112 10 119 -2z m25 -1287 c-1 -20 -48 -78 -57 -70
-7 7 38 87 49 87 4 0 8 -8 8 -17z m-650 -113 c0 -5 -4 -10 -10 -10 -5 0 -10 5
-10 10 0 6 5 10 10 10 6 0 10 -4 10 -10z m760 -120 c0 -5 -2 -10 -4 -10 -3 0
-8 5 -11 10 -3 6 -1 10 4 10 6 0 11 -4 11 -10z m-103 -6 c-3 -3 -12 -4 -19 -1
-8 3 -5 6 6 6 11 1 17 -2 13 -5z"/>
<path d="M2135 390 c-3 -5 -2 -10 4 -10 5 0 13 5 16 10 3 6 2 10 -4 10 -5 0
-13 -4 -16 -10z"/>
</g>
</svg>
